<mxfile host="app.diagrams.net" modified="2023-11-03T09:32:48.484Z" agent="Mozilla/5.0 (Macintosh; Intel Mac OS X 10_15_7) AppleWebKit/605.1.15 (KHTML, like Gecko) Version/15.5 Safari/605.1.15" etag="mVt24stEbYrPfz7zHb_v" version="22.0.8" type="google">
  <diagram name="Page-1" id="7Ms7wo5gd_gyLglevGoE">
    <mxGraphModel grid="1" page="1" gridSize="10" guides="1" tooltips="1" connect="1" arrows="1" fold="1" pageScale="1" pageWidth="827" pageHeight="1169" math="0" shadow="0">
      <root>
        <mxCell id="0" />
        <mxCell id="1" parent="0" />
        <mxCell id="5IGveLwYN8Hoh_PNXtf0-22" value="t-1" style="rounded=0;whiteSpace=wrap;html=1;fillColor=#dae8fc;strokeColor=#6c8ebf;" vertex="1" parent="1">
          <mxGeometry x="350" y="170" width="20" height="20" as="geometry" />
        </mxCell>
        <mxCell id="5IGveLwYN8Hoh_PNXtf0-23" value="t" style="rounded=0;whiteSpace=wrap;html=1;fillColor=#dae8fc;strokeColor=#6c8ebf;" vertex="1" parent="1">
          <mxGeometry x="400" y="170" width="20" height="20" as="geometry" />
        </mxCell>
        <mxCell id="5IGveLwYN8Hoh_PNXtf0-24" value="t+1" style="rounded=0;whiteSpace=wrap;html=1;fillColor=#dae8fc;strokeColor=#6c8ebf;" vertex="1" parent="1">
          <mxGeometry x="450" y="170" width="20" height="20" as="geometry" />
        </mxCell>
        <mxCell id="5IGveLwYN8Hoh_PNXtf0-67" style="edgeStyle=orthogonalEdgeStyle;rounded=0;orthogonalLoop=1;jettySize=auto;html=1;exitX=0;exitY=0.5;exitDx=0;exitDy=0;entryX=0;entryY=0.5;entryDx=0;entryDy=0;" edge="1" parent="1" source="5IGveLwYN8Hoh_PNXtf0-27" target="5IGveLwYN8Hoh_PNXtf0-30">
          <mxGeometry relative="1" as="geometry">
            <mxPoint x="330" y="200" as="targetPoint" />
            <Array as="points">
              <mxPoint x="340" y="360" />
              <mxPoint x="340" y="230" />
            </Array>
          </mxGeometry>
        </mxCell>
        <mxCell id="5IGveLwYN8Hoh_PNXtf0-27" value="t-1" style="rounded=0;whiteSpace=wrap;html=1;fillColor=#ffe6cc;strokeColor=#d79b00;" vertex="1" parent="1">
          <mxGeometry x="350" y="350" width="20" height="20" as="geometry" />
        </mxCell>
        <mxCell id="5IGveLwYN8Hoh_PNXtf0-68" style="edgeStyle=orthogonalEdgeStyle;rounded=0;orthogonalLoop=1;jettySize=auto;html=1;exitX=0;exitY=0.5;exitDx=0;exitDy=0;entryX=0;entryY=0.5;entryDx=0;entryDy=0;" edge="1" parent="1" source="5IGveLwYN8Hoh_PNXtf0-28" target="5IGveLwYN8Hoh_PNXtf0-47">
          <mxGeometry relative="1" as="geometry">
            <Array as="points">
              <mxPoint x="390" y="360" />
              <mxPoint x="390" y="230" />
            </Array>
          </mxGeometry>
        </mxCell>
        <mxCell id="5IGveLwYN8Hoh_PNXtf0-28" value="t" style="rounded=0;whiteSpace=wrap;html=1;fillColor=#ffe6cc;strokeColor=#d79b00;" vertex="1" parent="1">
          <mxGeometry x="400" y="350" width="20" height="20" as="geometry" />
        </mxCell>
        <mxCell id="5IGveLwYN8Hoh_PNXtf0-69" style="edgeStyle=orthogonalEdgeStyle;rounded=0;orthogonalLoop=1;jettySize=auto;html=1;exitX=0;exitY=0.5;exitDx=0;exitDy=0;entryX=0;entryY=0.5;entryDx=0;entryDy=0;" edge="1" parent="1" source="5IGveLwYN8Hoh_PNXtf0-29" target="5IGveLwYN8Hoh_PNXtf0-58">
          <mxGeometry relative="1" as="geometry">
            <Array as="points">
              <mxPoint x="430" y="360" />
              <mxPoint x="430" y="230" />
            </Array>
          </mxGeometry>
        </mxCell>
        <mxCell id="5IGveLwYN8Hoh_PNXtf0-29" value="t+1" style="rounded=0;whiteSpace=wrap;html=1;fillColor=#ffe6cc;strokeColor=#d79b00;" vertex="1" parent="1">
          <mxGeometry x="450" y="350" width="20" height="20" as="geometry" />
        </mxCell>
        <mxCell id="5IGveLwYN8Hoh_PNXtf0-41" style="edgeStyle=orthogonalEdgeStyle;rounded=0;orthogonalLoop=1;jettySize=auto;html=1;exitX=0.5;exitY=0;exitDx=0;exitDy=0;entryX=0.5;entryY=1;entryDx=0;entryDy=0;" edge="1" parent="1" source="5IGveLwYN8Hoh_PNXtf0-30" target="5IGveLwYN8Hoh_PNXtf0-33">
          <mxGeometry relative="1" as="geometry" />
        </mxCell>
        <mxCell id="5IGveLwYN8Hoh_PNXtf0-30" value="&lt;p style=&quot;margin: 0cm; text-align: start;&quot; class=&quot;MsoNormal&quot;&gt;&lt;font style=&quot;font-size: 12px;&quot;&gt;+&lt;/font&gt;&lt;/p&gt;" style="ellipse;whiteSpace=wrap;html=1;aspect=fixed;fillColor=#fff2cc;strokeColor=#d6b656;" vertex="1" parent="1">
          <mxGeometry x="355" y="225" width="10" height="10" as="geometry" />
        </mxCell>
        <mxCell id="5IGveLwYN8Hoh_PNXtf0-42" style="edgeStyle=orthogonalEdgeStyle;rounded=0;orthogonalLoop=1;jettySize=auto;html=1;exitX=0.5;exitY=0;exitDx=0;exitDy=0;entryX=0.5;entryY=1;entryDx=0;entryDy=0;" edge="1" parent="1" source="5IGveLwYN8Hoh_PNXtf0-33" target="5IGveLwYN8Hoh_PNXtf0-22">
          <mxGeometry relative="1" as="geometry" />
        </mxCell>
        <mxCell id="5IGveLwYN8Hoh_PNXtf0-33" value="σ" style="text;html=1;strokeColor=none;fillColor=none;align=center;verticalAlign=middle;whiteSpace=wrap;rounded=0;" vertex="1" parent="1">
          <mxGeometry x="355" y="200" width="10" height="10" as="geometry" />
        </mxCell>
        <mxCell id="5IGveLwYN8Hoh_PNXtf0-40" style="edgeStyle=orthogonalEdgeStyle;rounded=0;orthogonalLoop=1;jettySize=auto;html=1;exitX=0.5;exitY=0;exitDx=0;exitDy=0;entryX=0.5;entryY=1;entryDx=0;entryDy=0;" edge="1" parent="1" source="5IGveLwYN8Hoh_PNXtf0-34" target="5IGveLwYN8Hoh_PNXtf0-30">
          <mxGeometry relative="1" as="geometry" />
        </mxCell>
        <mxCell id="5IGveLwYN8Hoh_PNXtf0-34" value="" style="rounded=0;whiteSpace=wrap;html=1;fillColor=#d5e8d4;strokeColor=#82b366;" vertex="1" parent="1">
          <mxGeometry x="350" y="260" width="20" height="20" as="geometry" />
        </mxCell>
        <mxCell id="5IGveLwYN8Hoh_PNXtf0-39" style="edgeStyle=orthogonalEdgeStyle;rounded=0;orthogonalLoop=1;jettySize=auto;html=1;exitX=0.5;exitY=0;exitDx=0;exitDy=0;entryX=0.5;entryY=1;entryDx=0;entryDy=0;" edge="1" parent="1" source="5IGveLwYN8Hoh_PNXtf0-35" target="5IGveLwYN8Hoh_PNXtf0-34">
          <mxGeometry relative="1" as="geometry" />
        </mxCell>
        <mxCell id="5IGveLwYN8Hoh_PNXtf0-35" value="σ" style="text;html=1;strokeColor=none;fillColor=none;align=center;verticalAlign=middle;whiteSpace=wrap;rounded=0;" vertex="1" parent="1">
          <mxGeometry x="355" y="290" width="10" height="10" as="geometry" />
        </mxCell>
        <mxCell id="5IGveLwYN8Hoh_PNXtf0-38" style="edgeStyle=orthogonalEdgeStyle;rounded=0;orthogonalLoop=1;jettySize=auto;html=1;exitX=0.5;exitY=0;exitDx=0;exitDy=0;entryX=0.5;entryY=1;entryDx=0;entryDy=0;" edge="1" parent="1" source="5IGveLwYN8Hoh_PNXtf0-36" target="5IGveLwYN8Hoh_PNXtf0-35">
          <mxGeometry relative="1" as="geometry" />
        </mxCell>
        <mxCell id="5IGveLwYN8Hoh_PNXtf0-36" value="&lt;p style=&quot;margin: 0cm; text-align: start;&quot; class=&quot;MsoNormal&quot;&gt;&lt;font style=&quot;font-size: 12px;&quot;&gt;+&lt;/font&gt;&lt;/p&gt;" style="ellipse;whiteSpace=wrap;html=1;aspect=fixed;fillColor=#fff2cc;strokeColor=#d6b656;" vertex="1" parent="1">
          <mxGeometry x="355" y="310" width="10" height="10" as="geometry" />
        </mxCell>
        <mxCell id="5IGveLwYN8Hoh_PNXtf0-45" style="edgeStyle=orthogonalEdgeStyle;rounded=0;orthogonalLoop=1;jettySize=auto;html=1;exitX=0.5;exitY=0;exitDx=0;exitDy=0;entryX=0.5;entryY=1;entryDx=0;entryDy=0;" edge="1" parent="1" target="5IGveLwYN8Hoh_PNXtf0-55">
          <mxGeometry relative="1" as="geometry">
            <mxPoint x="410" y="350" as="sourcePoint" />
          </mxGeometry>
        </mxCell>
        <mxCell id="5IGveLwYN8Hoh_PNXtf0-46" style="edgeStyle=orthogonalEdgeStyle;rounded=0;orthogonalLoop=1;jettySize=auto;html=1;exitX=0.5;exitY=0;exitDx=0;exitDy=0;entryX=0.5;entryY=1;entryDx=0;entryDy=0;" edge="1" parent="1" source="5IGveLwYN8Hoh_PNXtf0-47" target="5IGveLwYN8Hoh_PNXtf0-49">
          <mxGeometry relative="1" as="geometry" />
        </mxCell>
        <mxCell id="5IGveLwYN8Hoh_PNXtf0-47" value="&lt;p style=&quot;margin: 0cm; text-align: start;&quot; class=&quot;MsoNormal&quot;&gt;&lt;font style=&quot;font-size: 12px;&quot;&gt;+&lt;/font&gt;&lt;/p&gt;" style="ellipse;whiteSpace=wrap;html=1;aspect=fixed;fillColor=#fff2cc;strokeColor=#d6b656;" vertex="1" parent="1">
          <mxGeometry x="405" y="225" width="10" height="10" as="geometry" />
        </mxCell>
        <mxCell id="5IGveLwYN8Hoh_PNXtf0-48" style="edgeStyle=orthogonalEdgeStyle;rounded=0;orthogonalLoop=1;jettySize=auto;html=1;exitX=0.5;exitY=0;exitDx=0;exitDy=0;entryX=0.5;entryY=1;entryDx=0;entryDy=0;" edge="1" parent="1" source="5IGveLwYN8Hoh_PNXtf0-49">
          <mxGeometry relative="1" as="geometry">
            <mxPoint x="410" y="190" as="targetPoint" />
          </mxGeometry>
        </mxCell>
        <mxCell id="5IGveLwYN8Hoh_PNXtf0-49" value="σ" style="text;html=1;strokeColor=none;fillColor=none;align=center;verticalAlign=middle;whiteSpace=wrap;rounded=0;" vertex="1" parent="1">
          <mxGeometry x="405" y="200" width="10" height="10" as="geometry" />
        </mxCell>
        <mxCell id="5IGveLwYN8Hoh_PNXtf0-50" style="edgeStyle=orthogonalEdgeStyle;rounded=0;orthogonalLoop=1;jettySize=auto;html=1;exitX=0.5;exitY=0;exitDx=0;exitDy=0;entryX=0.5;entryY=1;entryDx=0;entryDy=0;" edge="1" parent="1" source="5IGveLwYN8Hoh_PNXtf0-51" target="5IGveLwYN8Hoh_PNXtf0-47">
          <mxGeometry relative="1" as="geometry" />
        </mxCell>
        <mxCell id="5IGveLwYN8Hoh_PNXtf0-51" value="" style="rounded=0;whiteSpace=wrap;html=1;fillColor=#d5e8d4;strokeColor=#82b366;" vertex="1" parent="1">
          <mxGeometry x="400" y="260" width="20" height="20" as="geometry" />
        </mxCell>
        <mxCell id="5IGveLwYN8Hoh_PNXtf0-52" style="edgeStyle=orthogonalEdgeStyle;rounded=0;orthogonalLoop=1;jettySize=auto;html=1;exitX=0.5;exitY=0;exitDx=0;exitDy=0;entryX=0.5;entryY=1;entryDx=0;entryDy=0;" edge="1" parent="1" source="5IGveLwYN8Hoh_PNXtf0-53" target="5IGveLwYN8Hoh_PNXtf0-51">
          <mxGeometry relative="1" as="geometry" />
        </mxCell>
        <mxCell id="5IGveLwYN8Hoh_PNXtf0-53" value="σ" style="text;html=1;strokeColor=none;fillColor=none;align=center;verticalAlign=middle;whiteSpace=wrap;rounded=0;" vertex="1" parent="1">
          <mxGeometry x="405" y="290" width="10" height="10" as="geometry" />
        </mxCell>
        <mxCell id="5IGveLwYN8Hoh_PNXtf0-54" style="edgeStyle=orthogonalEdgeStyle;rounded=0;orthogonalLoop=1;jettySize=auto;html=1;exitX=0.5;exitY=0;exitDx=0;exitDy=0;entryX=0.5;entryY=1;entryDx=0;entryDy=0;" edge="1" parent="1" source="5IGveLwYN8Hoh_PNXtf0-55" target="5IGveLwYN8Hoh_PNXtf0-53">
          <mxGeometry relative="1" as="geometry" />
        </mxCell>
        <mxCell id="5IGveLwYN8Hoh_PNXtf0-55" value="&lt;p style=&quot;margin: 0cm; text-align: start;&quot; class=&quot;MsoNormal&quot;&gt;&lt;font style=&quot;font-size: 12px;&quot;&gt;+&lt;/font&gt;&lt;/p&gt;" style="ellipse;whiteSpace=wrap;html=1;aspect=fixed;fillColor=#fff2cc;strokeColor=#d6b656;" vertex="1" parent="1">
          <mxGeometry x="405" y="310" width="10" height="10" as="geometry" />
        </mxCell>
        <mxCell id="5IGveLwYN8Hoh_PNXtf0-56" style="edgeStyle=orthogonalEdgeStyle;rounded=0;orthogonalLoop=1;jettySize=auto;html=1;exitX=0.5;exitY=0;exitDx=0;exitDy=0;entryX=0.5;entryY=1;entryDx=0;entryDy=0;" edge="1" parent="1" target="5IGveLwYN8Hoh_PNXtf0-66">
          <mxGeometry relative="1" as="geometry">
            <mxPoint x="460" y="350" as="sourcePoint" />
          </mxGeometry>
        </mxCell>
        <mxCell id="5IGveLwYN8Hoh_PNXtf0-57" style="edgeStyle=orthogonalEdgeStyle;rounded=0;orthogonalLoop=1;jettySize=auto;html=1;exitX=0.5;exitY=0;exitDx=0;exitDy=0;entryX=0.5;entryY=1;entryDx=0;entryDy=0;" edge="1" parent="1" source="5IGveLwYN8Hoh_PNXtf0-58" target="5IGveLwYN8Hoh_PNXtf0-60">
          <mxGeometry relative="1" as="geometry" />
        </mxCell>
        <mxCell id="5IGveLwYN8Hoh_PNXtf0-58" value="&lt;p style=&quot;margin: 0cm; text-align: start;&quot; class=&quot;MsoNormal&quot;&gt;&lt;font style=&quot;font-size: 12px;&quot;&gt;+&lt;/font&gt;&lt;/p&gt;" style="ellipse;whiteSpace=wrap;html=1;aspect=fixed;fillColor=#fff2cc;strokeColor=#d6b656;" vertex="1" parent="1">
          <mxGeometry x="455" y="225" width="10" height="10" as="geometry" />
        </mxCell>
        <mxCell id="5IGveLwYN8Hoh_PNXtf0-59" style="edgeStyle=orthogonalEdgeStyle;rounded=0;orthogonalLoop=1;jettySize=auto;html=1;exitX=0.5;exitY=0;exitDx=0;exitDy=0;entryX=0.5;entryY=1;entryDx=0;entryDy=0;" edge="1" parent="1" source="5IGveLwYN8Hoh_PNXtf0-60">
          <mxGeometry relative="1" as="geometry">
            <mxPoint x="460" y="190" as="targetPoint" />
          </mxGeometry>
        </mxCell>
        <mxCell id="5IGveLwYN8Hoh_PNXtf0-60" value="σ" style="text;html=1;strokeColor=none;fillColor=none;align=center;verticalAlign=middle;whiteSpace=wrap;rounded=0;" vertex="1" parent="1">
          <mxGeometry x="455" y="200" width="10" height="10" as="geometry" />
        </mxCell>
        <mxCell id="5IGveLwYN8Hoh_PNXtf0-61" style="edgeStyle=orthogonalEdgeStyle;rounded=0;orthogonalLoop=1;jettySize=auto;html=1;exitX=0.5;exitY=0;exitDx=0;exitDy=0;entryX=0.5;entryY=1;entryDx=0;entryDy=0;" edge="1" parent="1" source="5IGveLwYN8Hoh_PNXtf0-62" target="5IGveLwYN8Hoh_PNXtf0-58">
          <mxGeometry relative="1" as="geometry" />
        </mxCell>
        <mxCell id="5IGveLwYN8Hoh_PNXtf0-62" value="" style="rounded=0;whiteSpace=wrap;html=1;fillColor=#d5e8d4;strokeColor=#82b366;" vertex="1" parent="1">
          <mxGeometry x="450" y="260" width="20" height="20" as="geometry" />
        </mxCell>
        <mxCell id="5IGveLwYN8Hoh_PNXtf0-63" style="edgeStyle=orthogonalEdgeStyle;rounded=0;orthogonalLoop=1;jettySize=auto;html=1;exitX=0.5;exitY=0;exitDx=0;exitDy=0;entryX=0.5;entryY=1;entryDx=0;entryDy=0;" edge="1" parent="1" source="5IGveLwYN8Hoh_PNXtf0-64" target="5IGveLwYN8Hoh_PNXtf0-62">
          <mxGeometry relative="1" as="geometry" />
        </mxCell>
        <mxCell id="5IGveLwYN8Hoh_PNXtf0-64" value="σ" style="text;html=1;strokeColor=none;fillColor=none;align=center;verticalAlign=middle;whiteSpace=wrap;rounded=0;" vertex="1" parent="1">
          <mxGeometry x="455" y="290" width="10" height="10" as="geometry" />
        </mxCell>
        <mxCell id="5IGveLwYN8Hoh_PNXtf0-65" style="edgeStyle=orthogonalEdgeStyle;rounded=0;orthogonalLoop=1;jettySize=auto;html=1;exitX=0.5;exitY=0;exitDx=0;exitDy=0;entryX=0.5;entryY=1;entryDx=0;entryDy=0;" edge="1" parent="1" source="5IGveLwYN8Hoh_PNXtf0-66" target="5IGveLwYN8Hoh_PNXtf0-64">
          <mxGeometry relative="1" as="geometry" />
        </mxCell>
        <mxCell id="5IGveLwYN8Hoh_PNXtf0-66" value="&lt;p style=&quot;margin: 0cm; text-align: start;&quot; class=&quot;MsoNormal&quot;&gt;&lt;font style=&quot;font-size: 12px;&quot;&gt;+&lt;/font&gt;&lt;/p&gt;" style="ellipse;whiteSpace=wrap;html=1;aspect=fixed;fillColor=#fff2cc;strokeColor=#d6b656;" vertex="1" parent="1">
          <mxGeometry x="455" y="310" width="10" height="10" as="geometry" />
        </mxCell>
        <mxCell id="5IGveLwYN8Hoh_PNXtf0-70" value="" style="endArrow=classic;html=1;rounded=0;entryX=0;entryY=0.5;entryDx=0;entryDy=0;exitX=1;exitY=0.5;exitDx=0;exitDy=0;" edge="1" parent="1" source="5IGveLwYN8Hoh_PNXtf0-27" target="5IGveLwYN8Hoh_PNXtf0-55">
          <mxGeometry width="50" height="50" relative="1" as="geometry">
            <mxPoint x="320" y="360" as="sourcePoint" />
            <mxPoint x="355" y="330" as="targetPoint" />
          </mxGeometry>
        </mxCell>
        <mxCell id="5IGveLwYN8Hoh_PNXtf0-72" value="" style="endArrow=classic;html=1;rounded=0;exitX=1;exitY=0.5;exitDx=0;exitDy=0;entryX=0;entryY=0;entryDx=0;entryDy=0;" edge="1" parent="1" source="5IGveLwYN8Hoh_PNXtf0-34" target="5IGveLwYN8Hoh_PNXtf0-55">
          <mxGeometry width="50" height="50" relative="1" as="geometry">
            <mxPoint x="340" y="310" as="sourcePoint" />
            <mxPoint x="390" y="260" as="targetPoint" />
          </mxGeometry>
        </mxCell>
        <mxCell id="5IGveLwYN8Hoh_PNXtf0-73" value="" style="endArrow=classic;html=1;rounded=0;exitX=1;exitY=0.5;exitDx=0;exitDy=0;entryX=0;entryY=1;entryDx=0;entryDy=0;" edge="1" parent="1" source="5IGveLwYN8Hoh_PNXtf0-34" target="5IGveLwYN8Hoh_PNXtf0-47">
          <mxGeometry width="50" height="50" relative="1" as="geometry">
            <mxPoint x="340" y="310" as="sourcePoint" />
            <mxPoint x="390" y="260" as="targetPoint" />
          </mxGeometry>
        </mxCell>
        <mxCell id="5IGveLwYN8Hoh_PNXtf0-74" value="" style="endArrow=classic;html=1;rounded=0;entryX=0;entryY=1;entryDx=0;entryDy=0;" edge="1" parent="1" target="5IGveLwYN8Hoh_PNXtf0-30">
          <mxGeometry width="50" height="50" relative="1" as="geometry">
            <mxPoint x="320" y="270" as="sourcePoint" />
            <mxPoint x="356" y="244" as="targetPoint" />
          </mxGeometry>
        </mxCell>
        <mxCell id="5IGveLwYN8Hoh_PNXtf0-75" value="" style="endArrow=classic;html=1;rounded=0;entryX=0;entryY=0.5;entryDx=0;entryDy=0;" edge="1" parent="1" target="5IGveLwYN8Hoh_PNXtf0-36">
          <mxGeometry width="50" height="50" relative="1" as="geometry">
            <mxPoint x="320" y="270" as="sourcePoint" />
            <mxPoint x="355" y="330" as="targetPoint" />
          </mxGeometry>
        </mxCell>
        <mxCell id="5IGveLwYN8Hoh_PNXtf0-76" value="" style="endArrow=classic;html=1;rounded=0;entryX=0;entryY=1;entryDx=0;entryDy=0;exitX=1;exitY=0.5;exitDx=0;exitDy=0;" edge="1" parent="1" target="5IGveLwYN8Hoh_PNXtf0-36">
          <mxGeometry width="50" height="50" relative="1" as="geometry">
            <mxPoint x="330" y="365" as="sourcePoint" />
            <mxPoint x="355" y="330" as="targetPoint" />
          </mxGeometry>
        </mxCell>
        <mxCell id="5IGveLwYN8Hoh_PNXtf0-77" value="" style="endArrow=none;dashed=1;html=1;rounded=0;" edge="1" parent="1">
          <mxGeometry width="50" height="50" relative="1" as="geometry">
            <mxPoint x="310" y="279.6" as="sourcePoint" />
            <mxPoint x="330" y="279.6" as="targetPoint" />
          </mxGeometry>
        </mxCell>
        <mxCell id="5IGveLwYN8Hoh_PNXtf0-78" value="" style="endArrow=none;dashed=1;html=1;rounded=0;" edge="1" parent="1">
          <mxGeometry width="50" height="50" relative="1" as="geometry">
            <mxPoint x="480" y="279.6" as="sourcePoint" />
            <mxPoint x="500" y="279.6" as="targetPoint" />
          </mxGeometry>
        </mxCell>
        <mxCell id="5IGveLwYN8Hoh_PNXtf0-79" value="" style="endArrow=classic;html=1;rounded=0;exitX=1;exitY=0.5;exitDx=0;exitDy=0;entryX=0;entryY=1;entryDx=0;entryDy=0;" edge="1" parent="1" target="5IGveLwYN8Hoh_PNXtf0-58">
          <mxGeometry width="50" height="50" relative="1" as="geometry">
            <mxPoint x="420" y="270" as="sourcePoint" />
            <mxPoint x="446" y="244" as="targetPoint" />
          </mxGeometry>
        </mxCell>
        <mxCell id="5IGveLwYN8Hoh_PNXtf0-80" value="" style="endArrow=classic;html=1;rounded=0;exitX=1;exitY=0.5;exitDx=0;exitDy=0;entryX=0;entryY=0;entryDx=0;entryDy=0;" edge="1" parent="1" target="5IGveLwYN8Hoh_PNXtf0-66">
          <mxGeometry width="50" height="50" relative="1" as="geometry">
            <mxPoint x="420" y="270" as="sourcePoint" />
            <mxPoint x="445" y="325" as="targetPoint" />
          </mxGeometry>
        </mxCell>
        <mxCell id="5IGveLwYN8Hoh_PNXtf0-81" value="" style="endArrow=classic;html=1;rounded=0;entryX=0;entryY=0.5;entryDx=0;entryDy=0;exitX=1;exitY=0.5;exitDx=0;exitDy=0;" edge="1" parent="1" source="5IGveLwYN8Hoh_PNXtf0-28" target="5IGveLwYN8Hoh_PNXtf0-66">
          <mxGeometry width="50" height="50" relative="1" as="geometry">
            <mxPoint x="420" y="365" as="sourcePoint" />
            <mxPoint x="445" y="330" as="targetPoint" />
          </mxGeometry>
        </mxCell>
        <mxCell id="5IGveLwYN8Hoh_PNXtf0-82" value="V" style="text;html=1;strokeColor=none;fillColor=none;align=center;verticalAlign=middle;whiteSpace=wrap;rounded=0;" vertex="1" parent="1">
          <mxGeometry x="414" y="245" width="10" height="10" as="geometry" />
        </mxCell>
        <mxCell id="5IGveLwYN8Hoh_PNXtf0-83" value="U" style="text;html=1;strokeColor=none;fillColor=none;align=center;verticalAlign=middle;whiteSpace=wrap;rounded=0;" vertex="1" parent="1">
          <mxGeometry x="414" y="330" width="10" height="10" as="geometry" />
        </mxCell>
        <mxCell id="5IGveLwYN8Hoh_PNXtf0-85" value="W" style="text;html=1;strokeColor=none;fillColor=none;align=center;verticalAlign=middle;whiteSpace=wrap;rounded=0;" vertex="1" parent="1">
          <mxGeometry x="370" y="285" width="10" height="10" as="geometry" />
        </mxCell>
        <mxCell id="5IGveLwYN8Hoh_PNXtf0-87" value="&lt;p style=&quot;margin: 0cm; text-align: start;&quot; class=&quot;MsoNormal&quot;&gt;D&lt;sub&gt;1&lt;font face=&quot;Calibri, sans-serif&quot;&gt;&lt;/font&gt;&lt;/sub&gt;&lt;/p&gt;" style="text;html=1;strokeColor=none;fillColor=none;align=center;verticalAlign=middle;whiteSpace=wrap;rounded=0;" vertex="1" parent="1">
          <mxGeometry x="370" y="240" width="20" height="20" as="geometry" />
        </mxCell>
        <mxCell id="5IGveLwYN8Hoh_PNXtf0-88" value="&lt;p style=&quot;margin: 0cm; text-align: start;&quot; class=&quot;MsoNormal&quot;&gt;D&lt;sub&gt;2&lt;font face=&quot;Calibri, sans-serif&quot;&gt;&lt;/font&gt;&lt;/sub&gt;&lt;/p&gt;" style="text;html=1;strokeColor=none;fillColor=none;align=center;verticalAlign=middle;whiteSpace=wrap;rounded=0;" vertex="1" parent="1">
          <mxGeometry x="370" y="320" width="20" height="20" as="geometry" />
        </mxCell>
        <mxCell id="5IGveLwYN8Hoh_PNXtf0-89" value="&lt;p style=&quot;margin: 0cm; text-align: start;&quot; class=&quot;MsoNormal&quot;&gt;D&lt;sub&gt;3&lt;font face=&quot;Calibri, sans-serif&quot;&gt;&lt;/font&gt;&lt;/sub&gt;&lt;/p&gt;" style="text;html=1;strokeColor=none;fillColor=none;align=center;verticalAlign=middle;whiteSpace=wrap;rounded=0;" vertex="1" parent="1">
          <mxGeometry x="380" y="210" width="20" height="20" as="geometry" />
        </mxCell>
        <mxCell id="5IGveLwYN8Hoh_PNXtf0-90" value="" style="endArrow=classic;html=1;rounded=0;entryX=0;entryY=0.5;entryDx=0;entryDy=0;" edge="1" parent="1">
          <mxGeometry width="50" height="50" relative="1" as="geometry">
            <mxPoint x="470" y="360" as="sourcePoint" />
            <mxPoint x="500" y="315" as="targetPoint" />
          </mxGeometry>
        </mxCell>
        <mxCell id="5IGveLwYN8Hoh_PNXtf0-91" value="" style="endArrow=classic;html=1;rounded=0;entryX=0;entryY=1;entryDx=0;entryDy=0;" edge="1" parent="1">
          <mxGeometry width="50" height="50" relative="1" as="geometry">
            <mxPoint x="470" y="270" as="sourcePoint" />
            <mxPoint x="501.46446609406735" y="233.53553390593265" as="targetPoint" />
          </mxGeometry>
        </mxCell>
        <mxCell id="5IGveLwYN8Hoh_PNXtf0-92" value="" style="endArrow=classic;html=1;rounded=0;exitX=1;exitY=0.5;exitDx=0;exitDy=0;entryX=0;entryY=0;entryDx=0;entryDy=0;" edge="1" parent="1">
          <mxGeometry width="50" height="50" relative="1" as="geometry">
            <mxPoint x="470" y="269.5" as="sourcePoint" />
            <mxPoint x="501.46446609406735" y="311.46446609406735" as="targetPoint" />
          </mxGeometry>
        </mxCell>
        <mxCell id="5IGveLwYN8Hoh_PNXtf0-97" style="edgeStyle=orthogonalEdgeStyle;rounded=0;orthogonalLoop=1;jettySize=auto;html=1;exitX=0.5;exitY=0;exitDx=0;exitDy=0;entryX=0.5;entryY=1;entryDx=0;entryDy=0;" edge="1" parent="1">
          <mxGeometry relative="1" as="geometry">
            <mxPoint x="359.71" y="350" as="sourcePoint" />
            <mxPoint x="359.71" y="320" as="targetPoint" />
          </mxGeometry>
        </mxCell>
      </root>
    </mxGraphModel>
  </diagram>
</mxfile>
